HIERARCHY
ROOT Hips
{
	OFFSET	0.00	0.00	0.00
	CHANNELS 6 Xposition Yposition Zposition Zrotation Xrotation Yrotation
	JOINT LeftUpLeg
	{
		OFFSET	 0.126116	-0.014019	-0.065224
		CHANNELS 3 Zrotation Xrotation Yrotation
		JOINT LeftLeg
		{
			OFFSET	 0.000000	 0.000000	 0.569914
			CHANNELS 3 Zrotation Xrotation Yrotation
			JOINT LeftFoot
			{
				OFFSET	 0.000000	 0.000000	 0.544423
				CHANNELS 3 Zrotation Xrotation Yrotation
				JOINT LeftToeBase
				{
					OFFSET	 0.000000	 0.000000	 0.207117
					CHANNELS 3 Zrotation Xrotation Yrotation
					End Site
					{
						OFFSET	 0.000000	 0.000000	 0.207117
					}
				}
			}
		}
	}
	JOINT RightUpLeg
	{
		OFFSET	-0.124023	-0.008373	-0.065224
		CHANNELS 3 Zrotation Xrotation Yrotation
		JOINT RightLeg
		{
			OFFSET	 0.000000	 0.000000	 0.570047
			CHANNELS 3 Zrotation Xrotation Yrotation
			JOINT RightFoot
			{
				OFFSET	 0.000000	 0.000000	 0.544354
				CHANNELS 3 Zrotation Xrotation Yrotation
				JOINT RightToeBase
				{
					OFFSET	 0.000000	 0.000000	 0.207540
					CHANNELS 3 Zrotation Xrotation Yrotation
					End Site
					{
						OFFSET	 0.000000	 0.000000	 0.207540
					}
				}
			}
		}
	}
	JOINT Spine
	{
		OFFSET	 0.000184	-0.007763	 0.117403
		CHANNELS 3 Zrotation Xrotation Yrotation
		JOINT Spine1
		{
			OFFSET	 0.000000	 0.000000	 0.137269
			CHANNELS 3 Zrotation Xrotation Yrotation
			JOINT Spine2
			{
				OFFSET	 0.000000	 0.000000	 0.156879
				CHANNELS 3 Zrotation Xrotation Yrotation
				JOINT LeftShoulder
				{
					OFFSET	 0.080501	-0.002496	 0.160144
					CHANNELS 3 Zrotation Xrotation Yrotation
					JOINT LeftArm
					{
						OFFSET	 0.000000	 0.000000	 0.164363
						CHANNELS 3 Zrotation Xrotation Yrotation
						JOINT LeftForeArm
						{
							OFFSET	 0.000000	 0.000000	 0.364576
							CHANNELS 3 Zrotation Xrotation Yrotation
							JOINT LeftHand
							{
								OFFSET	 0.000000	 0.000000	 0.360812
								CHANNELS 3 Zrotation Xrotation Yrotation
								JOINT LeftHandIndex1
								{
									OFFSET	 0.000000	 0.000000	 0.086006
									CHANNELS 3 Zrotation Xrotation Yrotation
									JOINT LeftHandIndex2
									{
										OFFSET	 0.000000	 0.000000	 0.047236
										CHANNELS 3 Zrotation Xrotation Yrotation
										JOINT LeftHandIndex3
										{
											OFFSET	-0.004284	-0.000551	 0.038166
											CHANNELS 3 Zrotation Xrotation Yrotation
											End Site
											{
												OFFSET	-0.004284	-0.000551	 0.038166
											}
										}
									}
								}
							}
						}
					}
				}
				JOINT Neck
				{
					OFFSET	 0.000000	 0.000000	 0.176489
					CHANNELS 3 Zrotation Xrotation Yrotation
					JOINT Head
					{
						OFFSET	 0.000000	-0.001747	 0.077940
						CHANNELS 3 Zrotation Xrotation Yrotation
						End Site
						{
							OFFSET	 0.000000	-0.001747	 0.077940
						}
					}
				}
				JOINT RightShoulder
				{
					OFFSET	-0.080363	 0.000306	 0.159706
					CHANNELS 3 Zrotation Xrotation Yrotation
					JOINT RightArm
					{
						OFFSET	 0.000000	 0.000000	 0.164196
						CHANNELS 3 Zrotation Xrotation Yrotation
						JOINT RightForeArm
						{
							OFFSET	 0.000000	 0.000000	 0.365611
							CHANNELS 3 Zrotation Xrotation Yrotation
							JOINT RightHand
							{
								OFFSET	 0.000000	 0.000000	 0.360648
								CHANNELS 3 Zrotation Xrotation Yrotation
								JOINT RightHandIndex1
								{
									OFFSET	 0.000000	 0.000000	 0.069977
									CHANNELS 3 Zrotation Xrotation Yrotation
									JOINT RightHandIndex2
									{
										OFFSET	 0.000000	 0.000000	 0.052305
										CHANNELS 3 Zrotation Xrotation Yrotation
										JOINT RightHandIndex3
										{
											OFFSET	 0.009002	-0.000782	 0.042196
											CHANNELS 3 Zrotation Xrotation Yrotation
											End Site
											{
												OFFSET	 0.009002	-0.000782	 0.042196
											}
										}
									}
								}
							}
						}
					}
				}
			}
		}
	}
}
MOTION
Frames:    6
Frame Time: 0.03333334
 0.158248	 2.777204	-0.340384	 6.843195	-2.136508	 0.353262	 6.761638	-3.342461	-178.877500	-2.263013	-36.166080	 1.461602	 6.545745	 89.536910	-5.226892	-2.376059	 30.444650	-0.043659	 1.411759	-28.477170	 179.408500	 23.845140	-74.440320	 27.328180	 158.332500	 89.808200	-151.103600	 2.379028	 29.583940	 0.026068	-12.132170	 4.756497	 1.198768	-10.957970	-0.914574	 0.556451	-11.900620	-3.124194	-1.113432	-91.802690	 77.943130	 178.939400	 35.836210	 64.001160	-47.093480	-13.617190	-0.777956	-36.721640	 1.434049	-1.889601	-5.445666	-3.812334	 37.924440	-2.927599	-2.450526	 36.184240	 0.754587	-1.378229	 35.397820	-2.634230	-0.307184	 4.023784	-1.704998	-2.631721	-11.858300	-2.311136	 89.795300	 78.882860	 179.559100	-41.894160	 71.326660	 44.212170	 6.332387	-4.398036	 33.584310	-11.020680	-2.840135	 9.700131	 6.437017	 35.671460	-0.771858	 2.830251	 35.756010	-7.813440	-2.350882	 35.473990	 5.254307
 0.174121	 2.693658	-0.345365	 7.221758	-1.620663	-0.669296	 5.973099	 3.392835	-177.231400	-3.207510	-30.215450	 0.933245	 13.803480	 89.707240	-13.210660	-2.374475	 30.734660	-0.050124	 2.051571	-33.301310	 179.767400	 12.470350	-63.019440	 15.297160	-172.288900	 89.054770	-179.947100	 2.378390	 29.711450	 0.028873	-12.331840	 4.579934	 2.340518	-11.024800	-0.985688	 0.476925	-11.714250	-3.217252	-1.105349	-91.768240	 78.673550	 178.772200	 34.938270	 61.912450	-49.008690	-13.141690	-0.758518	-39.967260	 1.460904	-1.880892	-5.448431	-3.812334	 37.924440	-2.927599	-2.450526	 36.184240	 0.754587	-1.378229	 35.397820	-2.634230	-0.367481	 4.221630	-2.496217	-2.377256	-12.389060	-1.960261	 89.780980	 78.153950	 179.454800	-41.630760	 71.548410	 42.733460	 6.737088	-4.320914	 35.611300	-10.440030	-2.810704	 9.712850	 6.437017	 35.671460	-0.771858	 2.830251	 35.756010	-7.813440	-2.350882	 35.473990	 5.254307
 0.181750	 2.646215	-0.347099	 7.366661	-1.182321	-0.884966	 6.358986	 8.119744	-177.008700	-3.504806	-24.510750	 1.148976	 7.298049	 88.709410	-6.199390	-2.366902	 32.023830	-0.079217	 2.316423	-34.820530	 179.709500	 9.368389	-55.306760	 11.550750	-153.684800	 89.436640	 161.827300	 2.386050	 28.069410	-0.006897	-12.329990	 4.368742	 2.586981	-10.927290	-1.041066	 0.457971	-11.569090	-3.224643	-1.092302	-91.759180	 78.834100	 178.755100	 34.586250	 61.003100	-49.900460	-13.124850	-0.603168	-41.084430	 1.236198	-1.893683	-5.447765	-3.812334	 37.924440	-2.927599	-2.450526	 36.184240	 0.754587	-1.378229	 35.397820	-2.634230	-0.330906	 4.348802	-2.805345	-2.297190	-12.590050	-1.927221	 89.777370	 77.998990	 179.449800	-41.530980	 71.743890	 42.316680	 6.919174	-4.239783	 35.894040	-10.333110	-2.802237	 9.715476	 6.437017	 35.671460	-0.771858	 2.830251	 35.756010	-7.813440	-2.350882	 35.473990	 5.254307
 0.192776	 2.575270	-0.350294	 7.645317	-0.750316	-1.189904	 8.260032	 17.661820	-176.727400	-4.094338	-11.621610	 1.557494	 3.407660	 84.007960	 0.385373	-2.344027	 35.236320	-0.154569	 2.989627	-35.798720	 179.761400	 5.748611	-44.850630	 7.474741	-151.870900	 89.542430	 159.776500	 2.384363	 28.456350	 0.001462	-12.254680	 3.979939	 2.831403	-10.663810	-1.170693	 0.496946	-11.235600	-3.225641	-1.060709	-91.752750	 78.941940	 178.735500	 34.307190	 60.334730	-50.898430	-13.227880	-0.460458	-41.709870	 1.100586	-1.883462	-5.450513	-3.812334	 37.924440	-2.927599	-2.450526	 36.184240	 0.754587	-1.378229	 35.397820	-2.634230	-0.176913	 4.393995	-3.145833	-2.101621	-12.630620	-1.800194	 89.774870	 77.892930	 179.446300	-41.326420	 72.142160	 42.053930	 7.047722	-4.107998	 35.036210	-10.556070	-2.800847	 9.713499	 6.437017	 35.671460	-0.771858	 2.830251	 35.756010	-7.813440	-2.350882	 35.473990	 5.254307
 0.200325	 2.505362	-0.352926	 8.248857	-0.873047	-1.289153	 8.324076	 21.136820	-177.544400	-3.576032	-11.609750	 1.644678	 4.170417	 83.970160	 0.036623	-2.304102	 39.459530	-0.261231	 3.210990	-35.490150	 179.686900	 3.250827	-38.450870	 4.965548	-172.333600	 89.125310	 179.194500	 2.370441	 31.176040	 0.061506	-12.362060	 4.077865	 2.690603	-10.486310	-1.264315	 0.501112	-10.893580	-3.266623	-1.032103	-91.757330	 78.851150	 178.694300	 34.902990	 60.356490	-52.185840	-13.328150	-0.413468	-41.118000	 1.167587	-1.884710	-5.451333	-3.812334	 37.924440	-2.927599	-2.450526	 36.184240	 0.754587	-1.378229	 35.397820	-2.634230	-0.110646	 4.240999	-3.243341	-1.879413	-12.374380	-1.453374	 89.775690	 77.977260	 179.330400	-40.784020	 72.683270	 41.649110	 7.127490	-3.959711	 33.330250	-11.062450	-2.809052	 9.705697	 6.437017	 35.671460	-0.771858	 2.830251	 35.756010	-7.813440	-2.350882	 35.473990	 5.254307
 0.207369	 2.425858	-0.355524	 8.863545	-1.032087	-1.215331	 8.621827	 24.941410	-179.071000	-2.382349	-11.581160	 1.837488	 5.340204	 81.962740	-0.078455	-2.241594	 44.290470	-0.397282	 3.038429	-34.245030	 179.278500	 3.242687	-37.676330	 4.783364	 160.791700	 89.668390	-154.049800	 2.371634	 30.968920	 0.056848	-12.424030	 3.869907	 2.319408	-10.264910	-1.275234	 0.411755	-10.562920	-3.271339	-1.001027	-91.762860	 78.748560	 178.638500	 36.071730	 61.104110	-53.019750	-13.440560	-0.426503	-39.221640	 1.389731	-1.869389	-5.454205	-3.812334	 37.924440	-2.927599	-2.450526	 36.184240	 0.754587	-1.378229	 35.397820	-2.634230	-0.090236	 4.171142	-3.254031	-1.704066	-11.996260	-0.857624	 89.778680	 78.085460	 179.311800	-39.324280	 73.357510	 39.992260	 7.257872	-3.773207	 31.466000	-11.614460	-2.823634	 9.693479	 6.437017	 35.671460	-0.771858	 2.830251	 35.756010	-7.813440	-2.350882	 35.473990	 5.254307
